<svg width="36px" height="36px" viewBox="0 0 36 36" version="1.1" xmlns="http://www.w3.org/2000/svg"
     xmlns:xlink="http://www.w3.org/1999/xlink">
  <title>logo people hr</title>
  <desc>Created with Sketch.</desc>
  <g id="logo-people-hr" stroke="none" stroke-width="1" fill="none" fill-rule="evenodd">
    <path
      d="M18,0.5 C8.3,0.5 0.5,8.3 0.5,18 C0.5,26.4 6.4,33.1 14.3,35.2 C14.7,35.3 15.1,35.4 15.5,35.3 C17.4,34.9 15.8,32.3 15.2,31.4 C13.8,29.1 12.3,26.7 10.5,24.6 C9.6,23.6 8.6,22.5 8.1,21.2 C7.5,19.5 8.2,17.4 10,16.8 C10.7,16.6 11.3,16.5 12,16.5 C15.9,16.1 19.6,14.8 23,13 C24.3,12.3 25.5,11.3 27.1,11.5 C28.2,11.7 29.1,12.4 29.6,13.3 C30.3,14.7 29.8,16.1 29.4,17.5 C28.1,21.3 27.1,25.1 26,28.9 C25.7,29.9 24.9,31.4 25.4,32.4 C25.8,33.2 26.6,33.3 27.3,32.9 C32.4,29.7 35.5,24 35.6,18 C35.5,8.3 27.6,0.5 18,0.5 Z M21.5,9 C21.5,11.4 19.9,13.5 17.7,13.9 C16.3,14.2 14.9,13.9 13.8,13 C13.7,12.9 13.6,12.8 13.5,12.8 C13.4,12.7 13.2,12.5 13.1,12.4 C12.3,11.5 11.8,10.2 11.8,9 L11.8,9 L11.8,9 C11.8,6.2 14,4 16.6,4 C19.2,4 21.5,6.2 21.5,9 L21.5,9 L21.5,9 L21.5,9 L21.5,9 Z"
      id="path22" fill="#F98E4C" fill-rule="nonzero"></path>
  </g>
</svg>
