<svg width="44" height="44" viewBox="0 0 44 44" fill="none" xmlns="http://www.w3.org/2000/svg">
  <path fill="#E5173F" d="M43.7142 21.9904L29.0354 9.07065C25.9592 6.34551 22.005 4.76343 17.6098 4.76343C8.11725 4.76343 0.382812 12.4979 0.382812 21.9904C0.382812 31.4829 8.11725 39.2173 17.6098 39.2173C22.004 39.2173 25.9602 37.5482 29.0354 34.9111L43.7152 21.9904H43.7142ZM5.56812 21.9904C5.56812 15.399 10.9294 9.94969 17.6098 9.94969C24.2012 9.94969 29.6514 15.311 29.6514 21.9904C29.6514 28.5827 24.2892 34.033 17.6088 34.033C16.0262 34.0377 14.4582 33.7293 12.9952 33.1258C11.5322 32.5222 10.203 31.6353 9.08399 30.516C7.96503 29.3968 7.07843 28.0674 6.4752 26.6042C5.87197 25.141 5.56307 23.573 5.56812 21.9904Z"/>
</svg>
