<svg fill="none" viewBox="0 0 600 274" width="600" height="274" xmlns="http://www.w3.org/2000/svg">
  <foreignObject x="0" y="0" width="100%" height="100%">
    <div xmlns="http://www.w3.org/1999/xhtml">
      <style>
        .container {
          width: 100%;
          margin: 0;
          padding: 28px;
          box-sizing: border-box;
          display: flex;
          gap: 50px;
          flex-direction: column;
          color: white;
          font-family: 'Arial', sans-serif;
          text-align: center;
        }

        .logosWrapper {
          display: flex;
          justify-content: center;
          align-items: center;
          gap: 48px
        }

        .logoBox {
          width: 193.37px;
          height: 193.37px;
        }

        .logoBoxContent {
          width: 193.37px;
          height: 193.37px;
          background-color: white;
          border: 5px solid #032B4E;
          border-radius: 35px;
          z-index: 2;
          object-fit: contain;
          padding: 20px;
          box-shadow: 10px 10px 0 0 #032B4E;
          box-sizing: border-box;
        }
      </style>

      <div class="container">
        <!-- Logos -->
        <div class="logosWrapper">
          <!-- Deskpro Logo -->
          <div class="logoBox">
            <div class="logoBoxContent">
              <!-- Deskpro Logo Begins -->
              <svg class="deskproLogo" version="1.1" xmlns="http://www.w3.org/2000/svg" width="100%" height="100%"
                viewBox="50 50 350 348">
                <path
                  d="M154.62 205.169V134.658H204.619C218.38 134.658 230.822 136.779 241.918 140.995C253.041 145.237 262.559 151.316 270.5 159.257C278.441 166.939 284.52 176.329 288.762 187.425C291.064 192.986 292.745 198.91 293.883 205.169L337.778 205.221C336.33 192.65 333.381 180.907 328.906 170.017C322.284 153.618 312.895 139.598 300.738 127.959C288.581 116.06 274.018 106.929 257.076 100.566C240.133 94.2292 221.354 91.0476 200.713 91.0476L111.604 91.0993V205.273L154.62 205.169Z"
                  fill="#090C2F" />
                <path
                  d="M293.884 242.701C292.772 249.064 291.065 255.117 288.737 260.833C284.495 271.671 278.416 281.061 270.475 289.001C262.534 296.684 253.016 302.633 241.893 306.849C230.771 311.091 218.355 313.186 204.594 313.186H154.595V242.675L111.579 242.779V356.952L200.74 356.849C221.381 356.849 240.16 353.667 257.102 347.33C274.045 340.993 288.452 331.991 300.351 320.351C312.508 308.453 321.923 294.433 328.519 278.293C333.175 267.222 336.227 255.35 337.727 242.701H293.858H293.884Z"
                  fill="#090C2F" />
              </svg>
              <!-- Deskpro Logo Ends -->
            </div>
            <div class="logoBoxShadow"></div>
          </div>

          <span
            style="font-size: 60px; font-weight: 900; text-shadow: -1px -1px 0px #032B4E, -1px -1px 0px #032B4E, 1px 1px 0px #032B4E, 1px -1px 0px #032B4E, -1px 1px 0px #032B4E, 3px 3px 0px #032B4E">+</span>

          <!-- Third Party Logo -->
          <div class="logoBox">
            <div class="logoBoxContent">
              <!-- Third Party Logo Starts Here -->
                <svg viewBox="0 0 44 44" fill="none" xmlns="http://www.w3.org/2000/svg">
                    <path fill="#E5173F" d="M43.7142 21.9904L29.0354 9.07065C25.9592 6.34551 22.005 4.76343 17.6098 4.76343C8.11725 4.76343 0.382812 12.4979 0.382812 21.9904C0.382812 31.4829 8.11725 39.2173 17.6098 39.2173C22.004 39.2173 25.9602 37.5482 29.0354 34.9111L43.7152 21.9904H43.7142ZM5.56812 21.9904C5.56812 15.399 10.9294 9.94969 17.6098 9.94969C24.2012 9.94969 29.6514 15.311 29.6514 21.9904C29.6514 28.5827 24.2892 34.033 17.6088 34.033C16.0262 34.0377 14.4582 33.7293 12.9952 33.1258C11.5322 32.5222 10.203 31.6353 9.08399 30.516C7.96503 29.3968 7.07843 28.0674 6.4752 26.6042C5.87197 25.141 5.56307 23.573 5.56812 21.9904Z" />
                </svg>
              <!-- Third Party Logo Ends Here -->
            </div>
            <div class="logoBoxShadow"></div>
          </div>

        </div>
      </div>
    </div>

  </foreignObject>
</svg>